<svg width="320" height="216" viewBox="0 0 320 216" xmlns="http://www.w3.org/2000/svg" role="img">
  <title>pumpkin the Sprout — Baby, idle</title>
  <desc>Active today!</desc>
  <defs>
    <radialGradient id="glow" cx="50%" cy="50%" r="50%">
      <stop offset="0%" stop-color="#ffe9a8" stop-opacity="0.9" />
      <stop offset="100%" stop-color="#ffe9a8" stop-opacity="0" />
    </radialGradient>
    <linearGradient id="shinyGradient" x1="0" y1="0" x2="1" y2="1">
      <stop offset="0%" stop-color="#ffffff" stop-opacity="0" />
      <stop offset="50%" stop-color="#ffffff" stop-opacity="0.85" />
      <stop offset="100%" stop-color="#ffffff" stop-opacity="0" />
    </linearGradient>
    <clipPath id="panelClip">
      <rect x="0" y="0" width="320" height="216" rx="14" />
    </clipPath>
  </defs>

  <g clip-path="url(#panelClip)">
    <rect x="0" y="0" width="320" height="216" fill="#f4f9ff" />
    

    <g>
      <g transform="translate(0,0)">
        <animateTransform attributeName="transform" type="translate"
      values="0 0; 0 -2.2; 0 0" dur="2.4s" repeatCount="indefinite" additive="sum" />
        
        <rect x="137.27" y="33.09" width="9.09" height="9.09" fill="#aaffbc" /><rect x="146.36" y="33.09" width="9.09" height="9.09" fill="#aaffbc" /><rect x="155.45" y="33.09" width="9.09" height="9.09" fill="#aaffbc" /><rect x="164.55" y="33.09" width="9.09" height="9.09" fill="#aaffbc" /><rect x="173.64" y="33.09" width="9.09" height="9.09" fill="#aaffbc" /><rect x="128.18" y="42.18" width="9.09" height="9.09" fill="#aaffbc" /><rect x="137.27" y="42.18" width="9.09" height="9.09" fill="#8ee6a0" /><rect x="146.36" y="42.18" width="9.09" height="9.09" fill="#8ee6a0" /><rect x="155.45" y="42.18" width="9.09" height="9.09" fill="#8ee6a0" /><rect x="164.55" y="42.18" width="9.09" height="9.09" fill="#8ee6a0" /><rect x="173.64" y="42.18" width="9.09" height="9.09" fill="#8ee6a0" /><rect x="182.73" y="42.18" width="9.09" height="9.09" fill="#aaffbc" /><rect x="119.09" y="51.27" width="9.09" height="9.09" fill="#aaffbc" /><rect x="128.18" y="51.27" width="9.09" height="9.09" fill="#8ee6a0" /><rect x="137.27" y="51.27" width="9.09" height="9.09" fill="#8ee6a0" /><rect x="146.36" y="51.27" width="9.09" height="9.09" fill="#8ee6a0" /><rect x="155.45" y="51.27" width="9.09" height="9.09" fill="#8ee6a0" /><rect x="164.55" y="51.27" width="9.09" height="9.09" fill="#8ee6a0" /><rect x="173.64" y="51.27" width="9.09" height="9.09" fill="#8ee6a0" /><rect x="182.73" y="51.27" width="9.09" height="9.09" fill="#8ee6a0" /><rect x="191.82" y="51.27" width="9.09" height="9.09" fill="#aaffbc" /><rect x="119.09" y="60.36" width="9.09" height="9.09" fill="#8ee6a0" /><rect x="128.18" y="60.36" width="9.09" height="9.09" fill="#8ee6a0" /><rect x="137.27" y="60.36" width="9.09" height="9.09" fill="#8ee6a0" /><rect x="146.36" y="60.36" width="9.09" height="9.09" fill="#8ee6a0" /><rect x="155.45" y="60.36" width="9.09" height="9.09" fill="#8ee6a0" /><rect x="164.55" y="60.36" width="9.09" height="9.09" fill="#8ee6a0" /><rect x="173.64" y="60.36" width="9.09" height="9.09" fill="#8ee6a0" /><rect x="182.73" y="60.36" width="9.09" height="9.09" fill="#8ee6a0" /><rect x="191.82" y="60.36" width="9.09" height="9.09" fill="#8ee6a0" /><rect x="119.09" y="69.45" width="9.09" height="9.09" fill="#8ee6a0" /><rect x="128.18" y="69.45" width="9.09" height="9.09" fill="#8ee6a0" /><rect x="137.27" y="69.45" width="9.09" height="9.09" fill="#8ee6a0" /><rect x="146.36" y="69.45" width="9.09" height="9.09" fill="#8ee6a0" /><rect x="155.45" y="69.45" width="9.09" height="9.09" fill="#8ee6a0" /><rect x="164.55" y="69.45" width="9.09" height="9.09" fill="#8ee6a0" /><rect x="173.64" y="69.45" width="9.09" height="9.09" fill="#8ee6a0" /><rect x="182.73" y="69.45" width="9.09" height="9.09" fill="#8ee6a0" /><rect x="191.82" y="69.45" width="9.09" height="9.09" fill="#8ee6a0" /><rect x="119.09" y="78.55" width="9.09" height="9.09" fill="#72ca84" /><rect x="128.18" y="78.55" width="9.09" height="9.09" fill="#8ee6a0" /><rect x="137.27" y="78.55" width="9.09" height="9.09" fill="#8ee6a0" /><rect x="146.36" y="78.55" width="9.09" height="9.09" fill="#8ee6a0" /><rect x="155.45" y="78.55" width="9.09" height="9.09" fill="#8ee6a0" /><rect x="164.55" y="78.55" width="9.09" height="9.09" fill="#8ee6a0" /><rect x="173.64" y="78.55" width="9.09" height="9.09" fill="#8ee6a0" /><rect x="182.73" y="78.55" width="9.09" height="9.09" fill="#8ee6a0" /><rect x="191.82" y="78.55" width="9.09" height="9.09" fill="#72ca84" /><rect x="128.18" y="87.64" width="9.09" height="9.09" fill="#72ca84" /><rect x="137.27" y="87.64" width="9.09" height="9.09" fill="#8ee6a0" /><rect x="146.36" y="87.64" width="9.09" height="9.09" fill="#8ee6a0" /><rect x="155.45" y="87.64" width="9.09" height="9.09" fill="#8ee6a0" /><rect x="164.55" y="87.64" width="9.09" height="9.09" fill="#8ee6a0" /><rect x="173.64" y="87.64" width="9.09" height="9.09" fill="#8ee6a0" /><rect x="182.73" y="87.64" width="9.09" height="9.09" fill="#72ca84" /><rect x="137.27" y="96.73" width="9.09" height="9.09" fill="#72ca84" /><rect x="146.36" y="96.73" width="9.09" height="9.09" fill="#72ca84" /><rect x="155.45" y="96.73" width="9.09" height="9.09" fill="#72ca84" /><rect x="164.55" y="96.73" width="9.09" height="9.09" fill="#72ca84" /><rect x="173.64" y="96.73" width="9.09" height="9.09" fill="#72ca84" /><rect x="137.27" y="105.82" width="9.09" height="9.09" fill="#7ad28c" /><rect x="173.64" y="105.82" width="9.09" height="9.09" fill="#7ad28c" />
        <circle cx="123.63636363636364" cy="74.00000000000001" r="5.000000000000001" fill="#ff9a9a" opacity="0.35" /><circle cx="196.36363636363635" cy="74.00000000000001" r="5.000000000000001" fill="#ff9a9a" opacity="0.35" />
        
        <g transform="translate(141.8181818181818,64.9090909090909)">
          <animate attributeName="transform" attributeType="XML"
      values="scale(1,1);scale(1,1);scale(1,0.1);scale(1,1);scale(1,1)"
      keyTimes="0;0.85;0.9;0.95;1" dur="4s" repeatCount="indefinite" />
          <circle r="3.6" fill="#ffffff" />
          <circle cy="0" r="1.7" fill="#26313f" />
        </g>
        <g transform="translate(178.18181818181816,64.9090909090909)">
          <animate attributeName="transform" attributeType="XML"
      values="scale(1,1);scale(1,1);scale(1,0.1);scale(1,1);scale(1,1)"
      keyTimes="0;0.85;0.9;0.95;1" dur="4s" repeatCount="indefinite" />
          <circle r="3.6" fill="#ffffff" />
          <circle cy="0" r="1.7" fill="#26313f" />
        </g>
        <path d="M 155 91.18181818181819 Q 160 96.18181818181819 165 91.18181818181819" stroke="#3a2e1f" stroke-width="1.4" fill="none" stroke-linecap="round" />
      </g>
    </g>
    
    
    
    <text x="296" y="38" font-size="16" text-anchor="middle">🎃
      <animateTransform attributeName="transform" type="scale" additive="sum"
        values="1;1.15;1" dur="1.6s" repeatCount="indefinite" />
    </text>

    <line x1="12" y1="140" x2="308" y2="140" stroke="#00000014" stroke-width="1" />

    <text x="16" y="157" font-family="monospace" font-size="12" font-weight="bold" fill="#3a3f4b">
      pumpkin the Sprout
    </text>
    <text x="16" y="172" font-family="monospace" font-size="9.5" fill="#3a3f4b" opacity="0.85">
      Active today!
    </text>
    <text x="16" y="188" font-family="monospace" font-size="10" fill="#3a3f4b">
      🔥3d  ⭐1  📦2  💾30/yr  ·  together 14d
    </text>
    <text x="16" y="202" font-family="monospace" font-size="9" fill="#3a3f4b" opacity="0.85">
      Keep coding to unlock traits...
    </text>
    <text x="252" y="202" font-size="10" fill="#ff6b81">♥</text><text x="263" y="202" font-size="10" fill="#ff6b81">♥</text><text x="274" y="202" font-size="10" fill="#d8dee8">♥</text><text x="285" y="202" font-size="10" fill="#d8dee8">♥</text><text x="296" y="202" font-size="10" fill="#d8dee8">♥</text>
  </g>
</svg>